<?xml version="1.0" standalone="no"?>
<!DOCTYPE svg PUBLIC "-//W3C//DTD SVG 20010904//EN"
 "http://www.w3.org/TR/2001/REC-SVG-20010904/DTD/svg10.dtd">
<svg version="1.0" xmlns="http://www.w3.org/2000/svg"
 width="64.000000pt" height="64.000000pt" viewBox="0 0 64.000000 64.000000"
 preserveAspectRatio="xMidYMid meet">

<g transform="translate(0.000000,64.000000) scale(0.100000,-0.100000)"
fill="#345c82" stroke="none">
<path d="M10 600 c0 -18 5 -30 13 -30 7 0 37 -25 67 -55 58 -59 80 -66 107
-35 24 27 41 25 49 -6 5 -21 2 -31 -16 -44 -23 -18 -24 -50 -1 -58 9 -3 11 1
7 16 -4 13 -1 22 9 26 25 9 46 -4 39 -26 -4 -15 -2 -19 7 -16 23 8 22 45 0 58
-22 11 -28 44 -11 55 16 10 12 45 -6 52 -9 3 -26 1 -37 -6 -17 -11 -23 -9 -46
13 l-26 26 154 0 154 0 -23 -25 c-24 -25 -50 -33 -50 -15 0 17 -40 11 -47 -6
-3 -9 0 -26 7 -37 11 -18 10 -23 -10 -39 -23 -19 -24 -48 -1 -56 9 -3 11 1 7
16 -4 13 -1 22 9 26 25 9 46 -4 39 -26 -4 -15 -2 -19 7 -16 23 8 22 45 0 58
-12 6 -21 17 -21 26 0 25 30 28 51 5 30 -32 50 -26 109 34 30 30 60 55 67 55
8 0 13 12 13 30 l0 30 -310 0 -310 0 0 -30z m600 0 c0 -6 -103 -10 -290 -10
-187 0 -290 4 -290 10 0 6 103 10 290 10 187 0 290 -4 290 -10z m-446 -59 c29
-30 30 -61 3 -61 -7 0 -33 20 -57 45 l-44 45 35 0 c26 0 43 -8 63 -29z m366
-16 c-47 -47 -67 -55 -77 -29 -10 26 45 74 86 74 l35 0 -44 -45z m-260 -15 c0
-5 -4 -10 -10 -10 -5 0 -10 5 -10 10 0 6 5 10 10 10 6 0 10 -4 10 -10z m120 0
c0 -5 -4 -10 -10 -10 -5 0 -10 5 -10 10 0 6 5 10 10 10 6 0 10 -4 10 -10z"/>
<path d="M145 313 c-3 -21 -9 -66 -12 -100 l-5 -63 -37 0 c-71 0 -106 -73 -58
-118 23 -21 30 -22 288 -22 265 0 266 0 287 23 46 49 10 117 -60 117 l-36 0
-5 63 c-3 34 -9 79 -12 100 l-7 37 -68 0 -68 0 -7 -37 c-3 -21 -9 -66 -12
-101 -2 -34 -8 -62 -13 -62 -5 0 -11 28 -13 63 -3 34 -9 79 -12 100 l-7 37
-68 0 -68 0 -7 -37z m125 7 c0 -5 -22 -10 -50 -10 -27 0 -50 5 -50 10 0 6 23
10 50 10 28 0 50 -4 50 -10z m200 0 c0 -5 -22 -10 -50 -10 -27 0 -50 5 -50 10
0 6 23 10 50 10 28 0 50 -4 50 -10z m-210 -40 c0 -5 -22 -10 -50 -10 -27 0
-50 5 -50 10 0 6 23 10 50 10 28 0 50 -4 50 -10z m200 0 c0 -5 -22 -10 -50
-10 -27 0 -50 5 -50 10 0 6 23 10 50 10 28 0 50 -4 50 -10z m-170 -70 c0 -33
-4 -60 -10 -60 -6 0 -10 27 -10 60 0 33 4 60 10 60 6 0 10 -27 10 -60z m200 0
c0 -33 -4 -60 -10 -60 -6 0 -10 27 -10 60 0 33 4 60 10 60 6 0 10 -27 10 -60z
m-240 -10 l0 -50 -50 0 -50 0 0 50 0 50 50 0 50 0 0 -50z m200 0 l0 -50 -50 0
-50 0 0 50 0 50 50 0 50 0 0 -50z m144 -86 c20 -20 20 -48 0 -68 -23 -24 -525
-24 -548 0 -20 20 -20 48 0 68 23 24 525 24 548 0z"/>
<path d="M182 228 c-16 -16 -15 -43 3 -58 30 -25 61 30 33 58 -15 15 -21 15
-36 0z m28 -28 c0 -11 -4 -20 -10 -20 -5 0 -10 9 -10 20 0 11 5 20 10 20 6 0
10 -9 10 -20z"/>
<path d="M382 228 c-16 -16 -15 -43 3 -58 30 -25 61 30 33 58 -15 15 -21 15
-36 0z m28 -28 c0 -11 -4 -20 -10 -20 -5 0 -10 9 -10 20 0 11 5 20 10 20 6 0
10 -9 10 -20z"/>
<path d="M54 95 c-4 -8 -4 -22 0 -30 5 -13 41 -15 268 -13 l263 3 0 25 0 25
-263 3 c-227 2 -263 0 -268 -13z m86 -15 c0 -5 -16 -10 -35 -10 -19 0 -35 5
-35 10 0 6 16 10 35 10 19 0 35 -4 35 -10z m40 0 c0 -5 -4 -10 -10 -10 -5 0
-10 5 -10 10 0 6 5 10 10 10 6 0 10 -4 10 -10z m60 0 c0 -5 -9 -10 -20 -10
-11 0 -20 5 -20 10 0 6 9 10 20 10 11 0 20 -4 20 -10z m40 0 c0 -5 -4 -10 -10
-10 -5 0 -10 5 -10 10 0 6 5 10 10 10 6 0 10 -4 10 -10z m60 0 c0 -5 -9 -10
-20 -10 -11 0 -20 5 -20 10 0 6 9 10 20 10 11 0 20 -4 20 -10z m40 0 c0 -5 -4
-10 -10 -10 -5 0 -10 5 -10 10 0 6 5 10 10 10 6 0 10 -4 10 -10z m60 0 c0 -5
-9 -10 -20 -10 -11 0 -20 5 -20 10 0 6 9 10 20 10 11 0 20 -4 20 -10z m40 0
c0 -5 -4 -10 -10 -10 -5 0 -10 5 -10 10 0 6 5 10 10 10 6 0 10 -4 10 -10z m90
0 c0 -5 -16 -10 -35 -10 -19 0 -35 5 -35 10 0 6 16 10 35 10 19 0 35 -4 35
-10z"/>
</g>
</svg>
