<?xml version="1.0" standalone="no"?>
<!DOCTYPE svg PUBLIC "-//W3C//DTD SVG 20010904//EN"
 "http://www.w3.org/TR/2001/REC-SVG-20010904/DTD/svg10.dtd">
<svg version="1.0" xmlns="http://www.w3.org/2000/svg"
 width="64.000000pt" height="64.000000pt" viewBox="0 0 64.000000 64.000000"
 preserveAspectRatio="xMidYMid meet">

<g transform="translate(0.000000,64.000000) scale(0.100000,-0.100000)"
fill="#345c82" stroke="none">
<path d="M227 634 c-4 -4 -7 -34 -7 -66 l0 -58 -64 32 c-77 38 -96 34 -96 -22
0 -22 5 -40 10 -40 6 0 10 16 10 35 0 19 4 35 9 35 4 0 78 -34 165 -75 l156
-76 0 -49 c0 -27 -4 -52 -10 -55 -5 -3 -10 -26 -10 -51 l0 -44 -155 0 -155 0
0 25 c0 25 1 25 85 25 50 0 85 4 85 10 0 6 -35 10 -85 10 -78 0 -85 2 -85 20
0 18 7 20 85 20 50 0 85 4 85 10 0 6 -35 10 -85 10 -78 0 -85 2 -85 20 0 18 7
20 85 20 50 0 85 4 85 10 0 6 -35 10 -85 10 l-85 0 0 37 c0 25 -3 34 -10 27
-7 -7 -10 -61 -8 -140 l3 -129 163 -3 c138 -2 162 -5 162 -18 0 -8 -7 -22 -15
-30 -16 -17 -21 -100 -7 -122 6 -9 35 -12 108 -10 l99 3 3 63 c2 49 0 64 -13
68 -8 3 -15 14 -15 24 0 11 -4 22 -10 25 -6 4 -10 -5 -10 -19 0 -25 -2 -26
-60 -26 l-60 0 0 75 0 75 60 0 60 0 0 -40 c0 -22 5 -40 10 -40 6 0 10 18 10
39 0 22 -4 43 -10 46 -5 3 -10 30 -10 59 0 53 -1 54 -47 84 -48 31 -73 30 -73
-5 0 -8 -4 -11 -10 -8 -6 3 -10 52 -10 111 l0 104 -35 0 -35 0 0 -85 c0 -109
-18 -112 -22 -2 l-3 82 -30 3 c-17 2 -34 0 -38 -4z m53 -29 c0 -8 -9 -15 -20
-15 -11 0 -20 7 -20 15 0 8 9 15 20 15 11 0 20 -7 20 -15z m90 0 c0 -8 -7 -15
-15 -15 -8 0 -15 7 -15 15 0 8 7 15 15 15 8 0 15 -7 15 -15z m-90 -45 c0 -5
-9 -10 -20 -10 -11 0 -20 5 -20 10 0 6 9 10 20 10 11 0 20 -4 20 -10z m90 0
c0 -5 -7 -10 -15 -10 -8 0 -15 5 -15 10 0 6 7 10 15 10 8 0 15 -4 15 -10z
m-90 -51 c0 -25 -33 -22 -38 4 -2 12 3 17 17 17 15 0 21 -6 21 -21z m90 -24
c0 -35 -3 -43 -15 -39 -10 4 -15 20 -15 45 0 28 4 39 15 39 11 0 15 -12 15
-45z m108 -65 c28 -18 32 -25 32 -65 l0 -45 -40 0 -40 0 0 65 c0 36 3 65 8 65
4 0 22 -9 40 -20z m82 -350 l0 -50 -90 0 -90 0 0 50 0 50 90 0 90 0 0 -50z"/>
</g>
</svg>
