<?xml version="1.0" standalone="no"?>
<!DOCTYPE svg PUBLIC "-//W3C//DTD SVG 20010904//EN"
 "http://www.w3.org/TR/2001/REC-SVG-20010904/DTD/svg10.dtd">
<svg version="1.0" xmlns="http://www.w3.org/2000/svg"
 width="64.000000pt" height="64.000000pt" viewBox="0 0 64.000000 64.000000"
 preserveAspectRatio="xMidYMid meet">

<g transform="translate(0.000000,64.000000) scale(0.100000,-0.100000)"
fill="#345c82" stroke="none">
<path d="M255 608 c-19 -15 -25 -29 -25 -57 0 -43 19 -65 65 -77 16 -4 36 -13
43 -21 17 -17 57 -17 74 0 20 20 66 26 85 11 41 -31 44 -7 8 65 -15 29 -35 53
-48 57 -12 4 -28 15 -35 25 -19 27 -132 25 -167 -3z m149 -4 c9 -8 16 -19 16
-23 0 -5 12 -11 28 -14 19 -4 31 -16 41 -39 8 -18 16 -35 18 -38 2 -3 -17 -5
-42 -4 -32 0 -50 -5 -62 -18 -21 -23 -36 -23 -57 1 -10 11 -32 21 -49 23 -22
2 -36 11 -47 31 -13 24 -13 30 0 55 13 22 25 28 65 33 28 3 55 7 62 7 6 1 19
-5 27 -14z"/>
<path d="M72 478 c-14 -14 -16 -54 -2 -63 16 -10 11 -43 -8 -57 -43 -31 -55
-65 -59 -181 -3 -68 -1 -123 6 -140 l11 -27 307 2 308 3 3 28 c3 22 -1 30 -17
34 -20 5 -21 12 -21 149 0 84 4 145 10 149 5 3 10 17 10 31 0 23 -2 24 -80 24
-79 0 -80 0 -80 -25 0 -14 5 -25 10 -25 6 0 10 -18 10 -40 0 -37 -2 -40 -19
-30 -28 14 -31 13 -31 -16 l0 -26 -44 26 c-55 32 -56 32 -56 1 0 -29 -10 -32
-32 -7 -9 9 -33 35 -53 56 -32 35 -35 42 -25 61 6 12 10 35 8 51 -3 29 -4 29
-73 32 -46 2 -74 -1 -83 -10z m148 -33 c0 -24 -2 -25 -70 -25 -68 0 -70 1 -70
25 0 24 2 25 70 25 68 0 70 -1 70 -25z m390 -40 c0 -12 -14 -15 -65 -15 -51 0
-65 3 -65 15 0 12 14 15 65 15 51 0 65 -3 65 -15z m-410 -19 c0 -8 16 -30 35
-49 22 -22 35 -45 35 -61 l0 -26 -126 0 -126 0 6 28 c4 15 22 42 41 60 19 18
35 39 35 47 0 11 12 15 50 15 36 0 50 -4 50 -14z m390 -156 c0 -143 -1 -150
-20 -150 -19 0 -20 7 -20 90 0 87 -1 91 -25 102 -22 10 -25 18 -25 60 l0 48
45 0 45 0 0 -150z m-151 20 c6 0 11 11 11 24 l0 25 45 -26 45 -25 0 -84 0 -84
-125 0 -125 0 0 95 c0 92 1 95 19 85 28 -14 31 -13 31 16 l0 26 44 -26 c25
-14 49 -26 55 -26z m-159 -70 l0 -60 -130 0 -130 0 0 60 0 60 130 0 130 0 0
-60z m0 -109 c0 -46 -16 -52 -141 -49 l-114 3 -3 38 -3 37 130 0 131 0 0 -29z
m340 -26 l0 -25 -169 0 -168 0 5 25 4 25 164 0 164 0 0 -25z"/>
<path d="M332 188 l3 -33 80 0 80 0 3 33 3 32 -86 0 -86 0 3 -32z m158 -3 c0
-12 -15 -15 -75 -15 -60 0 -75 3 -75 15 0 12 15 15 75 15 60 0 75 -3 75 -15z"/>
<path d="M91 196 c-21 -22 -31 -41 -28 -50 7 -17 42 -22 51 -8 3 5 28 4 56 -2
41 -8 53 -7 60 3 13 22 0 41 -30 48 -16 3 -30 13 -33 24 -8 29 -40 23 -76 -15z
m52 -7 c-17 -17 -37 -1 -22 17 8 10 15 12 23 4 7 -7 7 -13 -1 -21z m-29 -18
c8 -12 -21 -34 -34 -26 -8 5 -8 11 1 21 13 16 25 18 33 5z m56 1 c0 -13 -12
-22 -22 -16 -10 6 -1 24 13 24 5 0 9 -4 9 -8z m50 -18 c0 -9 -7 -14 -17 -12
-25 5 -28 28 -4 28 12 0 21 -6 21 -16z"/>
</g>
</svg>
